<svg width="39" height="39" viewBox="0 0 39 39" fill="none" xmlns="http://www.w3.org/2000/svg">
<path d="M14.625 34.125H24.375M19.5 4.875C14.1152 4.875 9.75 9.24022 9.75 14.625C9.75 16.5986 10.3364 18.4352 11.3444 19.9701C12.8945 22.3305 13.6689 23.5099 13.7695 23.6861C14.6645 25.2542 14.4997 24.7011 14.6123 26.5031C14.625 26.7056 14.625 27.0122 14.625 27.625C14.625 28.5225 15.3525 29.25 16.25 29.25L22.75 29.25C23.6475 29.25 24.375 28.5225 24.375 27.625C24.375 27.0122 24.375 26.7056 24.3877 26.5031C24.5003 24.7011 24.3346 25.2542 25.2296 23.6862C25.3302 23.5099 26.1058 22.3305 27.6559 19.9701C28.664 18.4352 29.2503 16.5986 29.2503 14.625C29.2503 9.24022 24.8848 4.875 19.5 4.875Z" stroke="#061C35" stroke-width="2" stroke-linecap="round" stroke-linejoin="round"/>
</svg>
