<svg width="28" height="31" viewBox="0 0 28 31" fill="none" xmlns="http://www.w3.org/2000/svg">
<path d="M18.875 10.75L12.375 17.25L9.125 14M27 12.6432C27 23.3166 18.9269 28.1019 15.5044 29.651L15.5001 29.6529C15.1401 29.8158 14.9597 29.8975 14.5507 29.9677C14.2916 30.0122 13.71 30.0122 13.451 29.9677C13.0403 29.8972 12.858 29.8153 12.4952 29.651C9.07267 28.1019 1 23.3166 1 12.6432V6.20032C1 4.38015 1 3.46938 1.35423 2.77417C1.66582 2.16264 2.16264 1.66582 2.77417 1.35423C3.46938 1 4.38015 1 6.20032 1H21.8003C23.6205 1 24.5293 1 25.2245 1.35423C25.836 1.66582 26.3345 2.16264 26.6461 2.77417C27 3.4687 27 4.37837 27 6.19498V12.6432Z" stroke="#061C35" stroke-width="2" stroke-linecap="round" stroke-linejoin="round"/>
</svg>
